<?xml version="1.0" encoding="UTF-8"?><svg xmlns="http://www.w3.org/2000/svg" xmlns:xlink="http://www.w3.org/1999/xlink" fill="#000000" height="500" preserveAspectRatio="xMidYMid meet" version="1" viewBox="0.0 0.0 500.0 500.0" width="500" zoomAndPan="magnify"><g id="change1_1"><path d="M192.9 272.9L140.1 200 121.5 200 121.5 300 139.4 300 139.4 225.6 192.2 300 210.7 300 210.7 200 192.9 200z" fill="inherit"/><path d="M231.7 300L249.9 300 249.9 257.7 295 257.7 295 241.1 250.1 241.1 250.1 215.9 297.3 215.9 297.3 200 231.7 200z" fill="inherit"/><path d="M302.6 216.1L331.3 216.1 331.3 300 349.8 300 349.8 216.1 378.5 216.1 378.5 200 302.6 200z" fill="inherit"/><path d="M250,0C112.2,0,0,112.2,0,250s112.2,250,250,250s250-112.2,250-250S387.8,0,250,0z M483.3,250c0,5.4-0.3,10.8-0.6,16.1 l-24.9-2.6c0.3-4.5,0.5-8.9,0.5-13.5c0-4.5-0.2-9-0.5-13.5l24.9-2.6C483.1,239.2,483.3,244.6,483.3,250z M157.7,436.7l-10.2,22.9 c-9.7-4.7-19-10.1-27.8-16.1l14.7-20.2C141.9,428.2,149.7,432.7,157.7,436.7z M173,443.5c8.3,3.3,16.8,6.2,25.6,8.4l-5.2,24.5 c-10.5-2.6-20.7-6-30.6-10L173,443.5z M214.9,455.3c8.8,1.5,17.7,2.4,26.8,2.8v25c-10.9-0.4-21.5-1.5-32-3.3L214.9,455.3z M258.3,458.1c9.1-0.4,18-1.3,26.8-2.8l5.2,24.5c-10.4,1.8-21.1,3-32,3.3V458.1z M301.4,451.9c8.8-2.2,17.3-5.1,25.6-8.4l10.2,22.9 c-9.9,4-20.1,7.4-30.6,10L301.4,451.9z M342.3,436.7c8.1-4,15.9-8.5,23.3-13.5l14.7,20.2c-8.9,6-18.2,11.4-27.8,16.1L342.3,436.7z M250,441.7c-14.4,0-28.4-1.6-41.9-4.7l32.8-32.8h50.7c4.6,0,8.3-3.7,8.3-8.3V375h8.3c4.6,0,8.3-3.7,8.3-8.3v-33.3 c0-4.6-3.7-8.3-8.3-8.3H275c-4.6,0-8.3,3.7-8.3,8.3v33.3c0,4.6,3.7,8.3,8.3,8.3h8.3v12.5h-45.8c-2.2,0-4.3,0.9-5.9,2.4l-41.9,41.9 c-14.4-4.8-28-11.2-40.7-19.1l23.6-23.6c1.6-1.6,2.4-3.7,2.4-5.9v-26.5c9.7-3.5,16.7-12.6,16.7-23.5c0-13.8-11.2-25-25-25 c-13.8,0-25,11.2-25,25c0,10.8,7,20,16.7,23.5v23.1L135,403.2c-46.5-35-76.7-90.7-76.7-153.2c0-26.6,5.5-52,15.3-75h43v-16.7H81.7 c20.6-37.7,53.5-67.7,93.3-84.7V150c0,4.6,3.7,8.3,8.3,8.3h43.2C230,168,239.2,175,250,175c13.8,0,25-11.2,25-25s-11.2-25-25-25 c-10.8,0-20,7-23.5,16.7h-34.9V67.4c18.4-5.9,38-9.1,58.3-9.1c47.7,0,91.4,17.6,125,46.6V150h-33.3v-8.3c0-4.6-3.7-8.3-8.3-8.3H300 c-4.6,0-8.3,3.7-8.3,8.3V175c0,4.6,3.7,8.3,8.3,8.3h33.3c4.6,0,8.3-3.7,8.3-8.3v-8.3h41.7c4.6,0,8.3-3.7,8.3-8.3V121 c31,34.1,50,79.3,50,129C441.7,355.7,355.7,441.7,250,441.7z M283.3,358.3v-16.7H300v16.7H283.3z M158.3,333.3 c0-4.6,3.7-8.3,8.3-8.3c4.6,0,8.3,3.7,8.3,8.3c0,4.6-3.7,8.3-8.3,8.3C162.1,341.7,158.3,337.9,158.3,333.3z M16.7,250 c0-5.4,0.3-10.8,0.6-16.1l24.9,2.6c-0.3,4.5-0.5,8.9-0.5,13.5c0,4.5,0.2,9,0.5,13.5l-24.9,2.6C16.9,260.8,16.7,255.4,16.7,250z M74,138.8l-21.7-12.5c5.7-9.1,12-17.8,18.9-26L89.8,117C84.1,123.9,78.8,131.2,74,138.8z M65.6,153.2c-4.2,7.9-7.9,16.1-11,24.6 L30.8,170c3.7-10.1,8.1-19.9,13.2-29.4L65.6,153.2z M49.5,193.6c-2.4,8.6-4.3,17.4-5.6,26.3L19,217.3c1.5-10.7,3.8-21.2,6.7-31.5 L49.5,193.6z M43.9,280c1.3,9,3.2,17.8,5.6,26.3l-23.8,7.7c-2.9-10.2-5.2-20.7-6.7-31.5L43.9,280z M54.6,322.3 c3.1,8.5,6.8,16.7,11,24.6L44,359.3c-5-9.4-9.4-19.2-13.2-29.3L54.6,322.3z M74,361.2c4.8,7.6,10.1,14.9,15.8,21.8l-18.6,16.7 c-6.9-8.2-13.2-16.9-18.9-26L74,361.2z M342.3,63.3l10.2-22.9c9.7,4.7,19,10.1,27.8,16.1l-14.7,20.2 C358.1,71.8,350.3,67.3,342.3,63.3z M327,56.5c-8.3-3.3-16.8-6.1-25.6-8.4l5.2-24.5c10.5,2.6,20.7,6,30.6,10L327,56.5z M285.1,44.7 c-8.8-1.5-17.7-2.4-26.8-2.8v-25c10.9,0.4,21.5,1.5,32,3.3L285.1,44.7z M241.7,41.9c-9.1,0.4-18,1.3-26.8,2.8l-5.2-24.5 c10.4-1.8,21.1-3,32-3.3V41.9z M198.6,48.1c-8.8,2.2-17.3,5.1-25.6,8.4l-10.2-22.9c9.9-4,20.1-7.4,30.6-10L198.6,48.1z M157.7,63.3 c-8.1,4-15.9,8.5-23.3,13.5l-14.7-20.2c8.9-6,18.2-11.4,27.8-16.1L157.7,63.3z M241.7,150c0-4.6,3.7-8.3,8.3-8.3s8.3,3.7,8.3,8.3 s-3.7,8.3-8.3,8.3S241.7,154.6,241.7,150z M325,150v16.7h-16.7V150H325z M450.5,193.6l23.8-7.7c2.9,10.2,5.2,20.7,6.7,31.5 l-24.9,2.6C454.8,211,452.9,202.2,450.5,193.6z M445.4,177.8c-3.1-8.5-6.8-16.7-11-24.6l21.7-12.5c5,9.4,9.4,19.2,13.2,29.4 L445.4,177.8z M426,138.8c-4.8-7.6-10.1-14.9-15.8-21.8l18.6-16.7c6.9,8.2,13.2,16.9,18.9,26L426,138.8z M426,361.2l21.7,12.5 c-5.7,9.1-12,17.8-18.9,26L410.2,383C415.9,376.1,421.2,368.8,426,361.2z M434.4,346.8c4.2-7.9,7.9-16.1,11-24.6l23.8,7.7 c-3.7,10.1-8.1,19.9-13.2,29.3L434.4,346.8z M450.5,306.4c2.4-8.6,4.3-17.4,5.6-26.3l24.9,2.6c-1.5,10.7-3.8,21.2-6.7,31.5 L450.5,306.4z M417.6,87.9L399,104.6c-6.3-6.4-13-12.4-20-18l14.7-20.2C402.2,73,410.1,80.2,417.6,87.9z M106.3,66.4L121,86.6 c-7,5.6-13.7,11.6-20,18L82.4,87.9C89.9,80.2,97.8,73,106.3,66.4z M82.4,412.1l18.6-16.7c6.3,6.4,13,12.4,20,18l-14.7,20.2 C97.8,427,89.9,419.8,82.4,412.1z M393.7,433.6L379,413.4c7-5.6,13.7-11.6,20-18l18.6,16.7C410.1,419.8,402.2,427,393.7,433.6z" fill="inherit"/><path d="M233.3 83.3H250V100H233.3z" fill="inherit"/><path d="M91.7 316.7H108.4V333.4H91.7z" fill="inherit"/><path d="M358.3 333.3H375V350H358.3z" fill="inherit"/><path d="M75 250H91.7V266.7H75z" fill="inherit"/><path d="M391.7 258.3H408.4V275H391.7z" fill="inherit"/><path d="M300 100H316.7V116.7H300z" fill="inherit"/><path d="M408.3 216.7H425V233.39999999999998H408.3z" fill="inherit"/><path d="M133.3 158.3H150V175H133.3z" fill="inherit"/></g></svg>